<?xml version="1.0" standalone="no"?>
<!DOCTYPE svg PUBLIC "-//W3C//DTD SVG 20010904//EN"
 "http://www.w3.org/TR/2001/REC-SVG-20010904/DTD/svg10.dtd">
<svg version="1.0" xmlns="http://www.w3.org/2000/svg"
 width="275.000000pt" height="183.000000pt" viewBox="0 0 275.000000 183.000000"
 preserveAspectRatio="xMidYMid meet">

<g transform="translate(0.000000,183.000000) scale(0.100000,-0.100000)"
fill="#000000" stroke="none">
<path d="M370 1554 c0 -21 380 -1226 390 -1237 10 -11 461 -10 471 0 4 5 21
55 39 113 18 58 35 108 39 112 4 5 22 -45 40 -110 19 -64 35 -118 37 -120 6
-9 478 -1 484 7 3 6 30 89 60 185 l54 175 120 3 120 3 62 190 62 190 -229 3
c-146 1 -229 6 -229 13 0 5 7 25 14 44 l15 35 229 0 230 0 61 189 c34 104 61
196 61 205 0 13 -44 15 -389 16 l-389 0 -47 -142 c-26 -79 -50 -147 -53 -152
-2 -5 -26 58 -51 140 l-46 149 -212 3 -211 2 -37 -117 c-20 -65 -42 -136 -49
-158 l-12 -39 -43 134 c-23 74 -46 145 -51 158 l-10 22 -265 0 c-238 0 -265
-2 -265 -16z m520 -3 c0 -4 -9 -20 -21 -35 -19 -24 -26 -26 -98 -26 -55 0 -83
5 -100 17 -22 15 -25 15 -37 -1 -11 -15 -25 -18 -91 -15 -64 3 -84 9 -113 29
l-35 25 240 5 c132 3 243 7 248 8 4 1 7 -2 7 -7z m627 -14 c6 -12 27 -76 48
-142 34 -109 37 -126 31 -195 -7 -73 7 -180 23 -180 4 0 15 26 25 58 10 31 21
63 24 71 3 8 1 12 -5 8 -12 -8 -23 37 -23 92 0 38 67 248 71 221 3 -19 4 -26
13 -75 5 -31 0 -59 -24 -129 -16 -49 -28 -91 -26 -93 2 -2 18 40 37 93 24 71
35 91 40 78 4 -11 8 -13 8 -6 1 9 40 12 160 12 97 0 161 4 163 10 2 5 57 13
123 17 116 8 119 9 125 33 5 21 7 19 13 -18 5 -28 2 -61 -9 -97 l-15 -55 -229
0 -228 0 -12 -35 c-6 -19 -8 -40 -4 -46 4 -7 3 -9 -3 -6 -9 6 -49 -100 -40
-109 2 -3 10 16 17 42 9 30 20 49 32 52 10 2 16 8 13 12 -3 4 4 10 15 13 11 3
20 1 20 -4 0 -5 -4 -9 -10 -9 -5 0 -7 -6 -4 -14 3 -7 -1 -29 -9 -47 l-14 -34
231 2 231 3 -35 -30 c-19 -16 -38 -30 -42 -30 -12 0 -10 -58 2 -65 6 -3 10 -1
10 4 0 6 7 11 15 11 9 0 12 6 9 15 -4 8 -1 15 5 15 14 0 15 -27 1 -35 -6 -4
-8 -10 -5 -14 6 -10 -64 -221 -74 -221 -4 0 -14 13 -24 28 -16 28 -15 32 13
113 34 94 36 108 13 64 -39 -74 -41 -75 -208 -75 -104 0 -155 4 -163 12 -26
26 -5 137 26 139 12 0 11 3 -4 9 -12 5 -25 14 -30 21 -5 8 -20 -24 -41 -86
-18 -54 -31 -100 -29 -103 2 -2 7 6 11 17 6 20 25 30 25 13 0 -5 -9 -35 -20
-67 -24 -71 -25 -87 -3 -55 9 14 22 28 27 32 6 4 90 7 186 6 136 -2 150 -3 60
-5 l-115 -4 -22 -77 c-12 -42 -25 -92 -28 -109 -4 -18 -10 -33 -14 -33 -4 0
-17 -33 -30 -72 -13 -40 -28 -79 -33 -85 -7 -9 -44 -13 -112 -14 -55 -1 -91
-4 -78 -7 13 -4 22 -12 21 -17 -1 -6 9 -16 22 -22 20 -11 2 -13 -113 -13
l-137 0 17 30 c9 16 22 30 27 30 6 0 5 3 -1 8 -6 4 -25 48 -43 97 -17 50 -28
77 -24 60 4 -16 6 -43 6 -58 0 -16 3 -23 7 -17 5 7 9 2 12 -13 3 -17 1 -24 -7
-21 -7 3 -12 -6 -12 -25 0 -19 4 -28 11 -24 6 4 4 -1 -4 -11 -13 -17 -16 -12
-37 55 -24 77 -30 163 -13 189 8 12 10 12 10 1 0 -8 2 -12 5 -10 2 3 -8 44
-24 93 l-28 87 -25 -78 c-15 -46 -22 -82 -17 -88 18 -18 9 -121 -17 -207 -15
-49 -30 -88 -33 -88 -14 0 -38 58 -30 71 5 8 9 21 8 29 0 8 -6 0 -14 -18 -11
-25 -20 -33 -37 -32 -53 5 -191 -3 -170 -8 13 -4 23 -12 23 -17 0 -6 10 -15
22 -22 18 -10 -1 -12 -110 -13 -82 0 -133 4 -133 10 0 6 3 10 8 10 4 0 13 9
20 20 11 18 6 41 -30 156 -37 118 -43 133 -51 110 -5 -14 -13 -24 -18 -21 -5
4 -6 -1 -3 -9 3 -8 2 -22 -3 -31 -7 -12 -16 5 -35 67 -14 46 -69 218 -121 383
-136 428 -129 401 -109 417 14 11 15 11 9 -5 -4 -11 0 -27 9 -40 l16 -22 -5
23 c-3 12 -1 20 4 16 5 -3 9 -14 9 -25 0 -11 4 -18 9 -15 5 4 17 -17 26 -45
20 -58 32 -60 16 -2 -15 52 -13 63 4 33 9 -15 14 -19 15 -10 0 12 10 14 45 12
25 -2 45 -9 46 -16 0 -6 4 -3 8 7 5 14 11 3 25 -43 10 -33 20 -59 23 -57 2 3
-8 42 -22 88 -15 46 -28 89 -29 94 -2 6 0 19 4 30 5 14 19 -18 50 -113 39
-122 59 -170 44 -104 -10 40 0 25 30 -43 28 -67 35 -62 10 6 -20 54 -24 142
-7 158 10 9 13 7 14 -11 0 -13 3 -17 6 -10 2 6 18 12 34 12 16 0 29 5 29 10 0
6 5 10 10 10 6 0 10 -8 10 -18 0 -10 4 -22 9 -27 5 -6 21 -48 36 -95 15 -47
33 -94 40 -105 6 -11 15 -37 19 -57 4 -21 11 -40 15 -42 5 -3 32 61 60 142 62
176 89 238 90 205 1 -24 30 -33 32 -10 0 10 2 10 6 0 3 -10 39 -13 129 -13 81
0 124 -4 124 -11 0 -15 23 10 37 41 11 24 12 24 12 -12 1 -20 7 -43 14 -50 8
-7 24 -44 36 -81 13 -38 25 -67 27 -65 2 2 -16 65 -40 139 -38 121 -47 177
-26 164 4 -3 10 4 13 15 3 12 1 18 -5 14 -6 -4 -8 2 -3 17 l7 24 -25 -24 c-26
-23 -31 -24 -174 -22 -137 2 -150 4 -171 24 l-24 22 189 5 c103 3 191 7 194 8
3 1 10 -8 16 -21z m963 14 c0 -4 -17 -19 -37 -32 l-38 -24 -317 5 c-303 5
-318 6 -332 25 -14 20 -12 20 347 25 199 3 365 6 370 8 4 1 7 -2 7 -7z m-1567
-83 c-12 -15 -13 -49 -2 -42 5 2 6 11 2 19 -3 8 -1 15 4 15 17 0 63 -164 63
-226 0 -108 -15 -98 -60 45 -23 73 -39 139 -36 148 4 9 1 20 -6 25 -10 6 -9 8
3 8 9 0 20 7 23 16 4 9 9 14 13 11 3 -4 1 -12 -4 -19z m198 -78 c5 0 7 -6 4
-12 -2 -7 -18 -59 -36 -116 -17 -57 -35 -100 -40 -95 -4 4 -11 28 -14 53 -4
34 2 70 27 150 l33 105 9 -43 c5 -23 13 -42 17 -42z m1325 -6 c-48 -157 -61
-194 -66 -194 -3 0 -13 12 -23 26 -15 20 -16 28 -7 39 7 8 18 15 24 15 6 0 5
-4 -3 -9 -9 -6 -10 -11 -2 -15 6 -4 8 -12 5 -18 -4 -7 -2 -8 4 -4 7 4 10 17 8
29 -3 12 -5 29 -5 37 -1 13 -2 13 -11 0 -8 -13 -10 -13 -10 1 0 32 39 128 61
150 20 20 22 20 16 3 -6 -17 -5 -17 11 2 9 12 18 21 19 20 2 -2 -8 -38 -21
-82z m-1886 0 c0 -8 -5 -12 -10 -9 -6 4 -8 11 -5 16 9 14 15 11 15 -7z m206
-52 c2 -28 0 -32 -6 -17 -11 25 -13 71 -3 61 4 -4 8 -24 9 -44z m1477 -126
c21 -20 23 -25 11 -30 -24 -9 -296 -6 -319 4 -19 8 -19 9 2 9 12 1 27 10 33
21 10 18 21 20 129 20 111 0 120 -1 144 -24z m-127 -455 c-11 -16 5 -40 21
-34 11 4 14 2 9 -5 -4 -8 -35 -12 -80 -12 -67 0 -75 2 -90 25 -9 13 -16 27
-16 30 0 3 36 5 81 5 45 0 78 -4 75 -9z m-142 -66 c7 -19 -95 -341 -109 -344
-5 -2 -16 11 -23 29 -9 24 -10 30 -1 24 9 -5 10 -2 6 9 -3 10 -3 17 2 17 10 0
24 38 22 62 -1 9 3 19 9 23 5 3 10 15 10 26 0 11 4 18 8 15 7 -4 9 3 13 59 1
13 5 22 10 19 5 -3 12 8 15 25 4 17 11 31 16 31 5 0 6 5 3 10 -3 6 -2 10 3 10
6 0 13 -7 16 -15z m-1208 -151 c-3 -8 -2 -13 3 -10 10 7 8 -66 -4 -108 -8 -28
-9 -27 -26 28 -16 53 -16 59 -1 96 13 29 19 35 25 24 5 -9 6 -22 3 -30z"/>
<path d="M2331 1364 c0 -11 3 -14 6 -6 3 7 2 16 -1 19 -3 4 -6 -2 -5 -13z"/>
<path d="M541 1250 c0 -8 4 -24 9 -35 5 -13 9 -14 9 -5 0 8 -4 24 -9 35 -5 13
-9 14 -9 5z"/>
<path d="M700 1225 c0 -5 5 -17 10 -25 5 -8 10 -10 10 -5 0 6 -5 17 -10 25 -5
8 -10 11 -10 5z"/>
<path d="M560 1185 c0 -5 5 -17 10 -25 5 -8 10 -10 10 -5 0 6 -5 17 -10 25 -5
8 -10 11 -10 5z"/>
<path d="M1210 1178 c0 -7 -3 -24 -5 -38 -3 -15 0 -11 8 9 10 26 15 31 19 19
4 -9 -7 -58 -23 -109 -33 -106 -34 -114 -14 -79 l14 25 1 -25 c1 -16 12 5 29
55 20 55 26 85 19 98 -7 14 -4 17 24 17 l33 1 -30 14 c-29 13 -28 13 38 14 44
1 66 -3 62 -9 -4 -6 -10 -8 -14 -6 -4 3 -13 1 -21 -5 -12 -7 -10 -9 7 -9 19 0
27 -16 63 -122 33 -100 39 -114 35 -73 -7 62 1 48 56 -110 22 -60 37 -98 34
-83 -5 25 -2 28 35 38 26 7 56 8 83 2 36 -7 42 -11 39 -32 -1 -13 -1 -22 2
-19 4 5 66 180 66 188 0 3 -11 -11 -25 -31 -30 -44 -41 -48 -130 -47 -96 2
-110 19 -166 194 l-43 135 -98 0 c-72 0 -98 -3 -98 -12z"/>
<path d="M762 1150 c0 -8 8 -37 18 -65 10 -27 18 -43 18 -35 0 8 -8 38 -18 65
-10 28 -18 43 -18 35z"/>
<path d="M581 1124 c0 -11 3 -14 6 -6 3 7 2 16 -1 19 -3 4 -6 -2 -5 -13z"/>
<path d="M811 1090 c0 -8 4 -22 9 -30 12 -18 12 -2 0 25 -6 13 -9 15 -9 5z"/>
<path d="M761 1044 c0 -11 3 -14 6 -6 3 7 2 16 -1 19 -3 4 -6 -2 -5 -13z"/>
<path d="M1381 1044 c0 -11 3 -14 6 -6 3 7 2 16 -1 19 -3 4 -6 -2 -5 -13z"/>
<path d="M811 990 c0 -8 6 -28 14 -45 17 -39 18 -21 0 25 -7 19 -14 28 -14 20z"/>
<path d="M1973 993 c48 -2 126 -2 175 0 48 1 8 3 -88 3 -96 0 -136 -2 -87 -3z"/>
<path d="M1127 925 c-22 -46 -55 -58 -142 -51 -64 4 -72 8 -97 38 -16 18 -28
30 -28 28 0 -3 14 -43 30 -90 17 -47 28 -75 26 -63 -5 28 10 33 89 33 42 0 69
-5 77 -14 11 -12 18 0 40 67 30 87 32 108 5 52z"/>
<path d="M1421 908 c-1 -41 -34 -58 -111 -58 -68 0 -89 9 -108 45 -9 18 -12
15 -23 -27 -7 -26 -17 -44 -22 -41 -6 3 -7 1 -3 -6 8 -12 -14 -71 -27 -71 -4
0 -5 12 -2 28 3 15 -6 -2 -19 -38 -16 -44 -26 -60 -30 -49 -5 12 -21 16 -64
16 -41 0 -50 -2 -34 -8 28 -11 28 -26 0 -33 -13 -3 2 -3 33 -1 39 2 64 -1 78
-11 19 -14 22 -13 27 3 4 10 17 41 29 70 32 71 55 81 181 79 110 -1 127 -8
150 -61 24 -54 14 -12 -20 90 -21 61 -35 90 -35 73z m-314 -240 c-3 -7 -5 -2
-5 12 0 14 2 19 5 13 2 -7 2 -19 0 -25z"/>
<path d="M811 875 c2 -55 2 -55 -53 -55 -35 0 -58 6 -71 18 -22 20 -23 26 12
-83 16 -50 19 -54 18 -25 l-2 35 65 0 65 0 22 -55 c12 -30 24 -59 26 -65 2 -5
10 -3 18 5 12 13 9 29 -24 125 -21 62 -35 94 -33 73 7 -53 -7 -47 -27 10 -14
40 -16 43 -16 17z m59 -85 c0 -5 -4 -10 -10 -10 -5 0 -10 5 -10 10 0 6 5 10
10 10 6 0 10 -4 10 -10z"/>
<path d="M1466 878 c19 -61 43 -122 43 -112 1 14 -40 134 -46 134 -2 0 -1 -10
3 -22z"/>
<path d="M1151 883 c-1 -6 -4 -20 -7 -30 -5 -17 -5 -17 6 0 6 10 9 23 6 30 -3
9 -5 9 -5 0z"/>
<path d="M1751 804 c0 -11 3 -14 6 -6 3 7 2 16 -1 19 -3 4 -6 -2 -5 -13z"/>
<path d="M1076 754 c-4 -14 -5 -28 -3 -31 3 -2 8 8 11 23 4 14 5 28 3 31 -3 2
-8 -8 -11 -23z"/>
<path d="M1731 744 c0 -11 3 -14 6 -6 3 7 2 16 -1 19 -3 4 -6 -2 -5 -13z"/>
<path d="M1511 745 c1 -19 18 -51 18 -35 0 8 -4 22 -9 30 -5 8 -9 11 -9 5z"/>
<path d="M933 704 c0 -17 2 -22 7 -13 5 6 6 18 3 26 -8 19 -10 16 -10 -13z"/>
<path d="M1552 714 c2 -16 7 -20 22 -16 15 4 17 7 6 10 -8 3 -18 10 -22 16 -4
6 -6 1 -6 -10z"/>
<path d="M1715 699 c-5 -15 -9 -18 -15 -9 -4 7 -29 13 -55 14 -26 1 -43 0 -36
-2 6 -2 9 -8 5 -13 -3 -5 1 -10 8 -10 7 -1 -5 -5 -27 -9 -33 -6 -25 -7 41 -9
82 -1 82 -1 87 27 6 34 1 41 -8 11z"/>
<path d="M721 674 c0 -11 3 -14 6 -6 3 7 2 16 -1 19 -3 4 -6 -2 -5 -13z"/>
<path d="M1530 676 c0 -9 5 -16 10 -16 6 0 10 4 10 9 0 6 -4 13 -10 16 -5 3
-10 -1 -10 -9z"/>
<path d="M1727 653 c-4 -3 -7 -11 -7 -17 0 -6 5 -5 12 2 6 6 9 14 7 17 -3 3
-9 2 -12 -2z"/>
<path d="M1226 535 c-9 -26 -7 -32 5 -12 6 10 9 21 6 23 -2 3 -7 -2 -11 -11z"/>
<path d="M2012 368 c-25 -25 -6 -68 30 -68 9 0 22 9 28 20 22 40 -26 80 -58
48z m43 -28 c0 -32 -38 -36 -42 -5 -2 15 -1 16 5 5 11 -22 32 -23 32 -1 0 11
-8 22 -17 25 -14 4 -14 4 2 3 14 -2 20 -10 20 -27z"/>
</g>
</svg>
